<?xml version="1.0" standalone="no"?> <!DOCTYPE svg PUBLIC "-//W3C//DTD SVG 1.0//EN" "http://www.w3.org/TR/2001/REC-SVG-20010904/DTD/svg10.dtd" > <svg xmlns="http://www.w3.org/2000/svg" width="100%" height="100%">
<defs >
<font horiz-adv-x="901" ><font-face
    font-family="Hauracherell NC"
    units-per-em="2048"
    panose-1="2 11 6 3 6 2 1 2 1 1"
    ascent="1991"
    descent="-521"
    alphabetic="0" />
<missing-glyph horiz-adv-x="950" d="M800 1600V-200H0V1600H800ZM150 1450V-50H650V1450H150Z" />
<glyph unicode=" " glyph-name="space" horiz-adv-x="336" />
<glyph unicode="!" glyph-name="exclam" horiz-adv-x="387" d="M12 381Q20 495 20 684Q20 981 0 1463L232 1452Q222 961 222 389L12 381ZM72 -77T37 -45T2 34Q2 81 37 113T120 145Q167 145 202 113T237 34Q237 -13 202 -45T120 -77Q72 -77 37 -45Z" />
<glyph unicode="&quot;" glyph-name="quotedbl" horiz-adv-x="674" d="M4 1197L0 1433L219 1442Q224 1338 224 1264Q224 1191 219 1147Q210 1060 96 934L32 993Q112 1083 112 1194L4 1197ZM304 1197L300 1433L519 1442Q524 1338 524 1264Q524 1191 519 1147Q510
1060 396 934L332 993Q412 1083 412 1194L304 1197Z" />
<glyph unicode="#" glyph-name="numbersign" horiz-adv-x="1247" d="M200 350H0L28 550H228L269 850H69L97 1050H297L345 1400H545L497 1050H697L745 1400H945L897 1050H1097L1069 850H869L828 550H1028L1000 350H800L752 0H552L600 350H400L352 0H152L200 350ZM469
850L428 550H628L669 850H469Z" />
<glyph unicode="$" glyph-name="dollar" horiz-adv-x="1001" d="M194 25T95 131Q0 232 0 477V497L227 564Q231 337 301 293Q357 256 424 256Q440 256 457 259Q543 269 573 320Q590 350 590 403Q590 437 583 480Q564 589 448 639T225 743T74 903Q44 974 44 1066Q44
1113 52 1165Q74 1320 185 1397Q290 1469 340 1469H345L341 1722H526L522 1469Q614 1461 709 1356T817 977L593 922Q589 1162 518 1208Q471 1238 427 1238Q402 1238 379 1229Q311 1204 286 1133Q276 1104 276 1075Q276 1031 299 985Q337 909 566 823T829 602Q851
515 851 438Q851 395 844 356Q825 244 760 152T526 0L522 -243H354V-4Q194 25 95 131Z" />
<glyph unicode="%" glyph-name="percent" horiz-adv-x="1917" d="M542 6Q826 780 1020 1445H1235Q910 594 748 -6L542 6ZM1765 484Q1767 451 1767 422Q1767 160 1648 78Q1537 1 1370 1Q1339 1 1307 4Q1097 21 1037 207Q1006 299 1006 397Q1006 494 1037 597Q1097
800 1419 800H1424Q1750 798 1765 484ZM1540 603T1398 604H1395Q1256 604 1232 504Q1220 453 1220 402Q1220 351 1232 301Q1255 199 1348 189Q1366 187 1383 187Q1451 187 1495 219Q1545 255 1545 405V431Q1540 603 1398 604ZM756 1143V1094Q756 820 632 731Q523
652 370 652Q333 652 294 657Q91 680 31 866Q0 958 0 1056Q0 1153 31 1256Q91 1459 413 1459H418Q744 1457 756 1143ZM534 1262T392 1263H389Q250 1263 226 1163Q214 1112 214 1061Q214 1010 226 960Q249 858 342 848Q360 846 377 846Q445 846 489 878Q539 914
539 1064V1090Q534 1262 392 1263Z" />
<glyph unicode="&amp;" glyph-name="ampersand" horiz-adv-x="1272" d="M156 993T156 1134Q156 1166 162 1196Q190 1358 292 1443Q371 1510 476 1510Q505 1510 535 1505Q677 1482 747 1407T819 1143V1142Q819 954 569 750L719 557L945 859L1113 731L863 380L1122
90L947 -45L735 191Q606 36 476 3Q426 -10 378 -10Q301 -10 228 23Q110 76 46 178Q0 249 0 366Q0 414 8 471Q35 663 258 811Q156 993 156 1134ZM383 620Q258 509 242 421Q237 397 237 376Q237 319 269 281Q311 231 403 231H414Q515 234 587 367L383 620ZM631 1060T631
1167Q631 1196 616 1223Q576 1293 513 1293Q468 1293 413 1259Q351 1220 351 1144Q351 1053 440 908Q631 1060 631 1167Z" />
<glyph unicode="&apos;" glyph-name="quotesingle" horiz-adv-x="374" d="M4 1197L0 1433L219 1442Q224 1338 224 1264Q224 1191 219 1147Q210 1060 96 934L32 993Q112 1083 112 1194L4 1197Z" />
<glyph unicode="(" glyph-name="parenleft" horiz-adv-x="692" d="M533 -226Q26 -226 6 429L0 861V881Q0 1614 482 1614Q498 1614 516 1613V1411H510Q245 1411 232 868L245 436Q258 -26 538 -26H542V-226H533Z" />
<glyph unicode=")" glyph-name="parenright" horiz-adv-x="692" d="M0 -26H4Q284 -26 297 436L310 868Q297 1411 32 1411H26V1613Q44 1614 60 1614Q542 1614 542 881V861L536 429Q516 -226 9 -226H0V-26Z" />
<glyph unicode="*" glyph-name="asterisk" horiz-adv-x="879" d="M241 997L0 1007L6 1187L265 1142L242 1439H440L421 1136L690 1194L729 1000L449 987L652 753L484 656L342 897L219 656L57 708L241 997Z" />
<glyph unicode="+" glyph-name="plus" horiz-adv-x="962" d="M5 616L0 777L306 784L300 1090L524 1084L515 796H800L812 597H512L506 310L306 304V597L5 616Z" />
<glyph unicode="," glyph-name="comma" horiz-adv-x="374" d="M4 9L0 245L219 254Q224 150 224 76Q224 3 219 -41Q210 -128 96 -254L32 -195Q112 -105 112 6L4 9Z" />
<glyph unicode="-" glyph-name="hyphen" horiz-adv-x="662" d="M5 606L0 787L500 796L512 597L5 606Z" />
<glyph unicode="." glyph-name="period" horiz-adv-x="369" d="M4 9L0 245L219 254L212 6L4 9Z" />
<glyph unicode="/" glyph-name="slash" horiz-adv-x="689" d="M150 -229L0 -179L395 1625L539 1575L150 -229Z" />
<glyph unicode="0" glyph-name="zero" horiz-adv-x="1010" d="M859 784Q860 732 860 684Q860 145 727 37Q610 -57 433 -57Q389 -57 341 -51Q100 -22 33 291Q0 447 0 627Q0 806 33 1010Q100 1414 469 1414H473Q846 1412 859 784ZM640 1152T456 1154H454Q272 1154
240 881Q223 744 223 623Q223 502 240 396Q272 185 390 165Q413 160 435 160Q522 160 580 226Q646 301 646 667V730Q640 1152 456 1154Z" />
<glyph unicode="1" glyph-name="one" horiz-adv-x="591" d="M231 -65Q228 472 215 1070Q118 955 23 926L0 1150Q138 1231 202 1382L441 1406Q429 815 429 320Q429 116 431 -71L231 -65Z" />
<glyph unicode="2" glyph-name="two" horiz-adv-x="934" d="M38 -12L15 271Q451 700 498 840Q527 925 527 1003Q527 1052 516 1098Q486 1217 405 1223H390Q320 1223 277 1175Q240 1132 240 992Q240 956 242 914L0 943Q0 1174 70 1295T276 1449Q347 1466 408 1466Q464
1466 513 1452Q614 1423 671 1337T751 1115Q762 1045 762 978Q762 915 752 853Q731 727 607 573T239 188Q326 187 403 187Q636 187 784 200V-53L38 -12Z" />
<glyph unicode="3" glyph-name="three" horiz-adv-x="988" d="M20 1260T120 1348T355 1451Q389 1454 421 1454Q517 1454 600 1422Q711 1378 757 1248Q790 1155 790 1059Q790 1021 785 983Q767 848 596 776Q747 731 792 629T838 437Q838 346 812 259T675 91T409
4Q400 3 392 3Q247 3 124 110Q0 216 0 456V482L228 500Q247 275 388 265Q405 264 420 264Q535 264 578 330Q603 368 603 421Q603 470 581 532Q535 660 292 673L273 860Q344 867 428 897T536 1009Q544 1037 544 1064Q544 1116 515 1165Q483 1217 413 1217Q384 1217
349 1208Q243 1181 243 1037Q243 1016 245 992L12 1000Q20 1260 120 1348Z" />
<glyph unicode="4" glyph-name="four" horiz-adv-x="1067" d="M526 -45L519 364L20 361L0 594Q284 987 523 1400L742 1394V600H917V355L729 358V-58L526 -45ZM529 611V1065Q407 865 246 613L529 611Z" />
<glyph unicode="5" glyph-name="five" horiz-adv-x="1010" d="M0 446L225 490Q232 342 303 287Q355 246 411 246Q431 246 452 252Q529 271 571 323Q610 370 610 471V489Q606 603 500 678Q458 707 413 707Q343 707 264 636L30 655L63 1443L768 1465L774 1179L286
1177L269 836Q372 906 475 906Q516 906 558 895Q702 856 768 761T853 569Q860 531 860 489Q860 420 842 339Q813 206 752 132T568 20Q485 -6 399 -6Q356 -6 313 0Q180 19 93 129T0 446Z" />
<glyph unicode="6" glyph-name="six" horiz-adv-x="983" d="M306 806T459 811H475Q617 811 710 735Q808 655 826 524Q833 466 833 415Q833 352 821 301Q799 208 746 122T582 2Q499 -23 422 -23Q396 -23 371 -20Q271 -9 176 55T43 279T1 681Q0 708 0 734Q0 940
32 1080Q67 1237 153 1334T336 1457Q388 1470 442 1470Q486 1470 531 1461Q630 1441 719 1339T821 975L595 918Q590 1037 573 1110T502 1206Q472 1218 439 1218Q413 1218 386 1211Q324 1193 287 1120T236 726Q306 806 459 811ZM253 374T278 307T382 211Q415 199
444 199Q483 199 514 221Q569 259 585 316T601 458Q601 542 508 600Q477 619 438 619Q359 619 249 541Q253 374 278 307Z" />
<glyph unicode="7" glyph-name="seven" horiz-adv-x="948" d="M792 1429L798 1197Q473 649 449 -42L239 -36Q285 720 551 1177L11 1165L0 1429H792Z" />
<glyph unicode="8" glyph-name="eight" horiz-adv-x="966" d="M394 667Q270 618 242 557T213 448V445Q213 398 247 344Q281 287 324 270Q353 257 392 257Q409 257 427 260Q488 267 524 294T584 368Q597 395 597 431Q597 456 590 486Q574 556 540 591T394 667ZM430
892T469 920T524 983Q536 1011 536 1050Q536 1060 535 1072Q531 1125 511 1158T459 1206Q434 1217 397 1217Q389 1217 380 1216Q332 1213 296 1198T242 1144T225 1055Q225 1005 247 961T373 881Q430 892 469 920ZM589 774Q738 695 776 602T816 419V414Q816 327
784 247Q751 165 689 112T534 36Q462 18 390 18Q369 18 348 20Q255 26 216 43T135 94T63 177T20 277T1 408Q0 420 0 432Q0 504 32 588Q69 687 171 753Q64 813 37 880T4 1029Q3 1041 3 1053Q3 1123 30 1200Q62 1290 124 1346T301 1422Q348 1430 394 1430Q458 1430
517 1415Q619 1388 677 1326T756 1178Q767 1126 767 1075Q767 1039 762 1004Q748 916 704 861T589 774Z" />
<glyph unicode="9" glyph-name="nine" horiz-adv-x="983" d="M527 591T374 587Q366 586 358 586Q216 586 123 662Q25 742 8 898Q0 967 0 1024Q0 1095 12 1147Q34 1239 87 1325T252 1445Q334 1470 411 1470Q437 1470 462 1467Q562 1456 657 1392T790 1168T833 767V713Q833
507 802 368Q766 210 680 113T498 -9Q445 -23 391 -23Q347 -23 303 -14Q203 6 114 108T12 422L238 479Q243 360 260 312T332 241Q361 229 394 229Q420 229 447 237Q509 254 546 302T597 671Q527 591 374 587ZM580 1073T555 1140T452 1236Q418 1248 389 1248Q350
1248 319 1227Q264 1188 248 1131T232 964Q232 855 326 797Q356 778 395 778Q474 778 584 856Q580 1073 555 1140Z" />
<glyph unicode=":" glyph-name="colon" horiz-adv-x="369" d="M4 9L0 245L219 254L212 6L4 9ZM4 774L0 1010L219 1019L212 771L4 774Z" />
<glyph unicode=";" glyph-name="semicolon" horiz-adv-x="374" d="M4 9L0 245L219 254Q224 150 224 76Q224 3 219 -41Q210 -128 96 -254L32 -195Q112 -105 112 6L4 9ZM4 774L0 1010L219 1019L212 771L4 774Z" />
<glyph unicode="&lt;" glyph-name="less" horiz-adv-x="750" d="M436 1200L588 1029L232 611L600 225L452 61L0 605L436 1200Z" />
<glyph unicode="=" glyph-name="equal" horiz-adv-x="1000" d="M21 765L0 956L850 962L839 760L21 765ZM33 406L28 587L828 596L840 397L33 406Z" />
<glyph unicode="&gt;" glyph-name="greater" horiz-adv-x="750" d="M600 605L148 61L0 225L368 611L12 1029L164 1200L600 605Z" />
<glyph unicode="?" glyph-name="question" horiz-adv-x="977" d="M31 1338T198 1406Q305 1449 411 1449Q469 1449 527 1436Q689 1398 752 1307T826 1078Q827 1059 827 1041Q827 922 766 807Q695 673 505 637L500 403L315 412L307 780Q462 794 519 849Q574 901
574 1025V1036Q571 1168 508 1213Q461 1246 395 1246Q372 1246 348 1243Q250 1227 226 1002L0 1069Q31 1338 198 1406ZM457 254T493 216T530 125Q530 72 494 34T402 -5Q348 -5 311 33T274 125Q274 178 311 216T402 254Q457 254 493 216Z" />
<glyph unicode="@" glyph-name="at" horiz-adv-x="1506" d="M797 752T754 805T654 859Q597 859 558 803T511 644Q507 603 507 557Q507 490 514 414Q525 285 607 225Q647 195 684 195Q723 195 760 227Q831 289 845 404L840 668Q797 752 754 805ZM832 1055L1023
1072Q1021 898 1021 760Q1021 222 1049 222Q1084 222 1127 339T1172 679V689Q1172 904 1084 1059Q994 1216 766 1230Q734 1231 704 1231Q520 1231 409 1161Q280 1078 231 849Q190 663 190 490Q190 450 193 411Q204 202 282 72T506 -118Q627 -169 784 -169Q813 -169
845 -167Q1039 -156 1229 -44L1302 -224Q1104 -320 904 -344Q837 -352 771 -352Q638 -352 506 -319Q308 -271 191 -134T32 219Q0 381 0 559Q0 617 4 676Q17 918 138 1135T516 1409Q606 1428 694 1428Q856 1428 1008 1362Q1243 1259 1313 1001Q1356 840 1356 669Q1356
565 1340 458Q1298 173 1197 94Q1100 18 993 18Q987 18 981 19Q866 23 840 162Q737 -9 621 -9Q617 -9 615 -8Q495 -4 425 87T321 326Q293 449 293 564Q293 587 295 610Q301 746 343 856T454 1026Q512 1077 592 1077Q607 1077 623 1075Q722 1064 855 918L832 1055Z"
/>
<glyph unicode="A" glyph-name="A" horiz-adv-x="1080" d="M606 1450Q744 735 930 33L657 12L573 395L290 379L238 25L0 12Q126 785 217 1438L606 1450ZM568 602L454 1256L392 1241L294 602H568Z" />
<glyph unicode="B" glyph-name="B" horiz-adv-x="1004" d="M217 839H254Q459 839 516 902Q565 957 565 1033Q565 1052 562 1073Q546 1175 464 1220Q405 1252 302 1252Q261 1252 213 1247L217 839ZM9 14Q9 994 0 1497Q115 1504 210 1504Q485 1504 590 1448Q731
1372 785 1261Q825 1176 825 1079Q825 1049 822 1018Q805 885 649 733Q840 645 852 473Q854 449 854 426Q854 285 790 190Q715 80 516 31Q396 1 237 1Q132 1 9 14ZM447 250T532 292Q611 330 611 436V453Q604 572 493 608Q427 629 353 629Q301 629 244 619V242Q447
250 532 292Z" />
<glyph unicode="C" glyph-name="C" horiz-adv-x="1017" d="M814 1386T843 1020L616 955Q595 1147 474 1178Q451 1184 430 1184Q342 1184 295 1076Q237 943 226 712Q223 657 223 606Q223 446 251 335Q287 188 453 188Q618 188 619 489L867 432Q840 141 697 20Q586
-75 422 -75Q374 -75 322 -66Q90 -31 30 287Q0 443 0 619Q0 802 32 1007Q92 1398 434 1398H454Q814 1386 843 1020Z" />
<glyph unicode="D" glyph-name="D" horiz-adv-x="1010" d="M18 -34Q10 734 0 1459Q147 1469 255 1469Q390 1469 464 1454Q597 1426 694 1311T833 991Q860 853 860 699Q860 625 854 547Q834 307 655 122Q500 -38 137 -38Q80 -38 18 -34ZM426 220T518 342T622 636Q625
681 625 724Q625 843 603 941Q572 1075 456 1144Q360 1200 269 1200Q249 1200 229 1197Q234 710 239 213Q426 220 518 342Z" />
<glyph unicode="E" glyph-name="E" horiz-adv-x="852" d="M664 1519L674 1244Q631 1245 571 1245Q436 1245 217 1239L221 868Q409 868 585 873L581 642Q518 646 455 646Q361 646 267 637V302H698L702 37Q466 42 14 42Q17 213 17 410Q17 882 0 1500L664 1519Z" />
<glyph unicode="F" glyph-name="F" horiz-adv-x="824" d="M664 1469L674 1194Q631 1195 571 1195Q436 1195 217 1189L221 758Q409 758 615 763L611 532Q536 536 466 536Q361 536 267 527V-18L14 -8Q17 163 17 360Q17 832 0 1450L664 1469Z" />
<glyph unicode="G" glyph-name="G" horiz-adv-x="1143" d="M849 1416T889 1051L663 969Q630 1167 501 1194Q478 1198 457 1198Q356 1198 283 1093Q194 966 192 733Q191 725 191 716Q191 495 256 354Q323 208 489 208Q654 208 654 494L425 504L412 690L984 726L993
491H861Q862 462 862 434Q862 150 732 40Q621 -55 457 -55Q409 -55 357 -46Q125 -11 42 321Q0 484 0 663Q0 846 44 1046Q127 1428 469 1428H489Q849 1416 889 1051Z" />
<glyph unicode="H" glyph-name="H" horiz-adv-x="985" d="M225 1474L220 842L575 871L566 1474L805 1466Q805 1006 835 6L628 15L603 585L285 577L260 6H0Q6 400 6 891Q6 1164 4 1466L225 1474Z" />
<glyph unicode="I" glyph-name="I" horiz-adv-x="416" d="M266 1422Q242 1043 242 464Q242 216 246 -69L25 -63V13Q25 535 0 1405L266 1422Z" />
<glyph unicode="J" glyph-name="J" horiz-adv-x="1014" d="M0 564L235 634Q254 330 390 312Q406 309 421 309Q532 309 585 429Q625 522 625 1002Q625 1220 617 1517L861 1533Q864 1313 864 1133Q864 479 824 358Q773 204 651 140T376 73H369Q221 73 122 162Q21
252 0 564Z" />
<glyph unicode="K" glyph-name="K" horiz-adv-x="1085" d="M250 1414L240 745L606 1428L905 1406Q703 1130 476 779L935 -57L603 -44Q470 329 302 576L241 483L227 -58L5 -63Q11 183 11 487Q11 900 0 1419L250 1414Z" />
<glyph unicode="L" glyph-name="L" horiz-adv-x="912" d="M286 1452Q258 914 257 242H758L762 -13Q486 -8 34 -8Q34 519 0 1430L286 1452Z" />
<glyph unicode="M" glyph-name="M" horiz-adv-x="1378" d="M29 -2Q31 166 31 325Q31 946 0 1431L355 1461L603 308Q798 1079 879 1457L1219 1448Q1219 519 1228 10L961 1Q987 537 996 955L728 19L446 14L250 955Q227 45 227 -6L29 -2Z" />
<glyph unicode="N" glyph-name="N" horiz-adv-x="1037" d="M19 715T0 1454L292 1472Q481 917 666 461Q660 653 627 1491H864Q862 1371 862 1227Q862 750 887 9L587 28Q450 376 202 1046Q217 755 217 251Q217 139 216 17L28 18Q19 715 0 1454Z" />
<glyph unicode="O" glyph-name="O" horiz-adv-x="1010" d="M859 784Q860 732 860 684Q860 145 727 37Q610 -57 433 -57Q389 -57 341 -51Q100 -22 33 291Q0 447 0 627Q0 806 33 1010Q100 1414 469 1414H473Q846 1412 859 784ZM640 1152T456 1154H454Q272 1154 240
881Q223 744 223 623Q223 502 240 396Q272 185 390 165Q413 160 435 160Q522 160 580 226Q646 301 646 667V730Q640 1152 456 1154Z" />
<glyph unicode="P" glyph-name="P" horiz-adv-x="999" d="M4 36Q4 965 0 1503Q52 1504 99 1504Q365 1504 503 1480Q665 1452 753 1313T849 1017V979Q849 845 803 735Q750 608 596 542Q469 487 325 487Q295 487 264 489Q263 412 263 343Q263 163 272 36H4ZM236
690Q255 689 273 689Q473 689 551 771Q621 844 621 974Q621 1000 618 1028Q601 1197 492 1256Q408 1300 300 1300Q267 1300 232 1296L236 690Z" />
<glyph unicode="Q" glyph-name="Q" horiz-adv-x="1015" d="M646 1222T462 1224H460Q278 1224 246 951Q229 815 229 695Q229 572 246 466Q279 255 396 235Q420 230 441 230Q528 230 586 296Q652 371 652 737V800Q646 1222 462 1224ZM271 16T153 122T8 534Q0 625
0 711Q0 916 44 1096Q105 1352 227 1425Q326 1483 431 1483Q456 1483 481 1480Q613 1463 720 1348T850 1020Q865 864 865 716Q865 661 863 607Q855 407 809 278T618 63Q687 -100 768 -258L556 -355Q540 -272 433 -2Q271 16 153 122Z" />
<glyph unicode="R" glyph-name="R" horiz-adv-x="982" d="M236 657H255Q468 657 536 746Q593 821 593 932Q593 957 590 984Q574 1130 477 1168Q423 1189 354 1189Q299 1189 233 1175L236 657ZM17 -49Q17 796 0 1410Q138 1422 250 1422Q586 1422 699 1313Q832 1184
832 965Q832 935 830 904Q809 641 620 573Q728 308 826 -33L586 -116Q501 238 408 459L264 431V-54L17 -49Z" />
<glyph unicode="S" glyph-name="S" horiz-adv-x="1005" d="M0 507L234 566Q234 347 306 297Q364 257 428 257Q444 257 461 260Q543 272 577 328Q598 364 598 420Q598 451 592 489Q573 593 453 646T229 754T82 912Q48 993 48 1088Q48 1116 51 1145Q63 1273 179
1376Q288 1473 436 1473H455Q614 1466 714 1365T824 987L606 934Q592 1161 525 1206Q482 1234 437 1234Q411 1234 384 1224Q311 1198 284 1124Q274 1097 274 1070Q274 1024 305 980Q352 911 573 824T832 608Q855 530 855 453Q855 405 846 357Q822 234 761 150T574
22Q494 -6 414 -6Q367 -6 321 3Q194 28 101 137T0 507Z" />
<glyph unicode="T" glyph-name="T" horiz-adv-x="945" d="M0 1212Q10 1298 10 1386Q10 1408 9 1430Q344 1413 578 1413Q695 1413 787 1417Q795 1265 795 1199L529 1195Q528 1035 528 882Q528 388 538 -22L271 -17Q301 405 301 943Q301 1059 300 1181V1191L0 1212Z" />
<glyph unicode="U" glyph-name="U" horiz-adv-x="1049" d="M9 674T0 1425L246 1447Q233 694 233 567Q233 440 277 357T411 262Q422 261 433 261Q507 261 557 323Q615 395 624 506Q626 538 626 636Q626 865 612 1452H899Q882 797 873 541T809 173T632 20Q557 -5
464 -5Q403 -5 335 6Q161 32 87 203T11 524Z" />
<glyph unicode="V" glyph-name="V" horiz-adv-x="1198" d="M328 31Q217 665 0 1543H287Q361 914 474 365Q629 1008 748 1553L1048 1540Q819 896 615 49L328 31Z" />
<glyph unicode="W" glyph-name="W" horiz-adv-x="1773" d="M264 1408Q319 988 450 246L617 1261L995 1239L1140 361Q1217 774 1360 1414L1623 1405Q1381 594 1310 -70L987 -44Q934 434 803 961Q704 525 585 -44L272 -70Q195 480 0 1391L264 1408Z" />
<glyph unicode="X" glyph-name="X" horiz-adv-x="1132" d="M612 683L982 -54L721 -61L472 466L241 -72L6 -56L358 686L0 1405L277 1414L487 871L715 1413L957 1399L612 683Z" />
<glyph unicode="Y" glyph-name="Y" horiz-adv-x="1153" d="M330 52L343 709L0 1502L243 1515L465 928L735 1511L1003 1480L574 706L548 52H330Z" />
<glyph unicode="Z" glyph-name="Z" horiz-adv-x="911" d="M22 1170L13 1457Q632 1427 731 1427L761 1154L246 242Q558 246 752 255V-21Q402 5 13 9L0 277L519 1174L22 1170Z" />
<glyph unicode="[" glyph-name="bracketleft" horiz-adv-x="695" d="M533 1607L529 1394H239L245 -9L542 -13L545 -229L13 -219L0 1600L533 1607Z" />
<glyph unicode="\" glyph-name="backslash" horiz-adv-x="689" d="M0 1575L144 1625L539 -179L389 -229L0 1575Z" />
<glyph unicode="]" glyph-name="bracketright" horiz-adv-x="695" d="M12 -229L16 -16H306L300 1387L3 1391L0 1607L532 1597L545 -222L12 -229Z" />
<glyph unicode="`" glyph-name="grave" horiz-adv-x="475" d="M262 1177L0 1307L89 1462L325 1266L262 1177Z" />
<glyph unicode="a" glyph-name="a" horiz-adv-x="890" d="M366 999H390Q549 999 614 942Q683 881 713 792Q740 709 740 22V-74L537 -69L539 63Q451 -44 336 -57Q314 -60 293 -60Q204 -60 132 -15Q42 39 13 131Q0 173 0 219Q0 273 18 333Q52 444 171 508Q280 567
464 567H493Q488 773 434 797Q406 809 376 809Q347 809 316 798Q253 774 253 650L23 680V687Q23 783 104 887Q188 994 366 999ZM530 415Q285 398 261 270Q255 242 255 219Q255 138 323 125Q335 123 348 123Q427 123 529 210L530 415Z" />
<glyph unicode="b" glyph-name="b" horiz-adv-x="898" d="M255 232T340 217Q353 214 365 214Q430 214 461 282Q497 363 502 442Q503 468 503 497Q503 557 497 632Q488 744 425 805Q391 837 358 837Q327 837 296 810Q231 754 209 631V382Q255 232 340 217ZM219
916Q324 1068 428 1068Q435 1068 443 1067Q554 1056 626 968T728 728Q748 621 748 523Q748 480 745 440Q732 304 692 196T583 40Q523 -2 427 -2Q414 -2 399 -1Q284 6 197 132L198 -2L0 8L11 1447L230 1443L219 916Z" />
<glyph unicode="c" glyph-name="c" horiz-adv-x="912" d="M524 823T435 833Q426 834 419 834Q340 834 294 743Q242 642 233 507Q230 470 230 435Q230 341 249 261Q274 150 331 121Q353 109 376 109Q414 109 457 139Q525 187 534 328L742 275Q742 170 658 56T432
-70Q412 -72 392 -72Q274 -72 180 -12Q70 58 25 255Q0 362 0 470Q0 559 17 647Q54 843 160 933T420 1024Q573 1024 657 932T762 653L558 600Q524 823 435 833Z" />
<glyph unicode="d" glyph-name="d" horiz-adv-x="891" d="M529 469L524 707Q512 816 452 875Q419 906 384 906Q354 906 322 882Q252 831 228 705Q214 629 214 564Q214 520 220 482Q236 386 272 334T360 281Q411 281 450 331T529 469ZM498 1016L501 1519H741L722
65H538V205Q432 60 325 52Q311 51 297 51Q208 51 150 98Q83 152 45 261T1 500Q0 520 0 542Q0 655 22 788Q48 947 121 1033T313 1129Q322 1130 330 1130Q436 1130 498 1016Z" />
<glyph unicode="e" glyph-name="e" horiz-adv-x="903" d="M266 414Q257 386 257 351Q257 319 264 281Q279 200 332 171Q352 159 375 159Q411 159 453 189Q521 237 530 338L738 285Q712 135 631 53T426 -46Q394 -51 363 -51Q276 -51 202 -14Q101 36 39 220Q0 334
0 472Q0 553 14 643Q51 883 157 973T417 1064Q569 1064 669 913Q753 784 753 526Q753 479 750 428L266 414ZM528 596Q506 780 462 830Q435 859 394 859Q365 859 330 845Q242 811 223 586L528 596Z" />
<glyph unicode="f" glyph-name="f" horiz-adv-x="916" d="M125 -40L131 797L0 804L6 979L145 980Q145 1290 221 1387T450 1493Q468 1494 486 1494Q612 1494 681 1440Q760 1379 766 1152L579 1122Q581 1144 581 1163Q581 1275 516 1295Q492 1302 472 1302Q428 1302
405 1267Q371 1217 371 996V983H705L697 789L366 784Q357 371 357 -51L125 -40Z" />
<glyph unicode="g" glyph-name="g" horiz-adv-x="883" d="M449 927T385 928H382Q319 928 280 875Q239 820 228 721Q222 669 222 610Q222 557 227 498Q237 373 312 315Q348 286 383 286Q418 286 452 317Q517 377 530 489L525 806Q449 927 385 928ZM20 -188L133
-15Q238 -135 342 -135H346Q451 -133 488 -59Q514 -5 514 109Q514 150 511 198Q433 68 325 68Q317 68 310 69Q191 78 118 164T18 405Q0 510 0 603Q0 646 4 687Q16 814 52 931T163 1097Q231 1141 325 1141H341Q445 1137 542 1017L531 1128H718L732 197Q733 161 733
129Q733 -43 694 -134Q646 -243 536 -306Q451 -354 342 -354Q308 -354 273 -350Q120 -331 20 -188Z" />
<glyph unicode="h" glyph-name="h" horiz-adv-x="924" d="M220 1435L215 829Q311 1023 446 1033H464Q588 1033 688 912Q774 806 774 238Q774 105 769 -54L548 -65Q557 160 557 321Q557 670 514 719Q466 773 411 773Q394 773 377 768Q303 746 275 612Q265 536 265
406Q265 226 284 -57L0 -66Q10 445 10 1427L220 1435Z" />
<glyph unicode="i" glyph-name="i" horiz-adv-x="387" d="M225 1005Q217 891 217 702Q217 405 237 -77L5 -66Q15 425 15 997L225 1005ZM164 1463T199 1431T235 1352Q235 1305 200 1273T117 1241Q70 1241 35 1273T0 1352Q0 1399 35 1431T117 1463Q164 1463 199 1431Z" />
<glyph unicode="j" glyph-name="j" horiz-adv-x="594" d="M442 1519T442 1472Q442 1425 407 1393T324 1361Q276 1361 242 1393T207 1472Q207 1519 241 1551T324 1583Q371 1583 406 1551ZM52 -203Q91 -219 120 -219Q159 -219 182 -192Q223 -145 229 51Q230 227
230 389Q230 794 223 1110L444 1098L424 54Q424 -251 347 -350T161 -453Q140 -454 121 -454Q41 -454 0 -439L52 -203Z" />
<glyph unicode="k" glyph-name="k" horiz-adv-x="903" d="M0 -96Q11 290 11 710Q11 1041 4 1394L235 1398Q219 917 219 668Q219 554 222 488Q403 789 503 1014L753 1017Q581 759 465 531Q644 144 747 -97L517 -112L322 329L257 204L266 -91L0 -96Z" />
<glyph unicode="l" glyph-name="l" horiz-adv-x="382" d="M220 1475Q212 1202 212 915Q212 465 232 -17L0 -26Q10 485 10 1467L220 1475Z" />
<glyph unicode="m" glyph-name="m" horiz-adv-x="1463" d="M211 1135V918Q250 1009 308 1063T422 1131Q435 1134 450 1134Q499 1134 571 1099Q663 1054 707 918Q764 1045 836 1085T975 1126Q1042 1126 1136 1079T1273 894Q1313 763 1313 102V39L1058 44Q1060 207
1060 332Q1060 654 1046 730Q1025 835 978 871Q964 881 946 881Q904 881 837 820Q758 748 758 244Q758 147 761 35H522Q526 238 526 391Q526 810 498 848Q465 890 414 890Q406 890 396 889Q333 880 267 719Q258 622 258 449Q258 277 267 30L0 26Q5 253 5 524Q5
796 0 1112L211 1135Z" />
<glyph unicode="n" glyph-name="n" horiz-adv-x="924" d="M209 1085L217 883Q311 1073 456 1083H475Q608 1083 698 962Q774 858 774 310Q774 168 769 -4L518 -15Q529 275 529 464Q529 780 499 814Q464 854 416 854Q397 854 377 848Q303 826 245 693Q235 604 235
466Q235 276 254 -7L0 -16Q10 495 10 1077L209 1085Z" />
<glyph unicode="o" glyph-name="o" horiz-adv-x="906" d="M756 615V542Q756 152 639 67Q535 -8 380 -8Q342 -8 301 -3Q91 20 31 271Q0 396 0 527Q0 659 31 797Q91 1071 414 1071H418Q744 1069 756 615ZM537 861T400 862H398Q262 862 239 701Q227 618 227 536Q227
455 238 375Q261 211 351 195Q369 191 386 191Q451 191 493 242Q542 301 542 541V584Q537 861 400 862Z" />
<glyph unicode="p" glyph-name="p" horiz-adv-x="881" d="M189 724L190 502Q206 389 278 329Q320 293 364 293Q397 293 431 312Q512 356 521 483Q525 542 525 596Q525 656 520 710Q510 810 469 865T371 921Q314 921 272 869T189 724ZM210 215L215 -229H5L0 1125H184L186
984Q290 1129 397 1138Q411 1139 425 1139Q513 1139 573 1092Q641 1037 681 929T729 690Q731 658 731 623Q731 520 713 402Q689 243 618 157T428 61Q421 60 414 60Q304 60 210 215Z" />
<glyph unicode="q" glyph-name="q" horiz-adv-x="891" d="M496 682T453 735T353 789Q296 789 257 733T210 574Q206 533 206 487Q206 420 213 344Q224 215 306 155Q346 125 383 125Q422 125 459 157Q530 219 544 334L539 598Q496 682 453 735ZM528 75Q437 -80 327
-80Q320 -80 313 -79Q195 -69 122 16T22 262Q0 395 0 508Q0 530 1 551Q6 680 44 788T150 952Q208 999 296 999Q310 999 325 998Q432 989 538 854V985H722L741 -369H531L528 75Z" />
<glyph unicode="r" glyph-name="r" horiz-adv-x="886" d="M528 851T512 865Q468 904 417 904Q397 904 377 898Q303 876 245 743Q235 654 235 516Q235 326 254 43L0 34Q10 545 10 1127L209 1135L217 933Q311 1123 446 1133H464Q588 1133 688 1011Q717 974 736 887L537
799Q528 851 512 865Z" />
<glyph unicode="s" glyph-name="s" d="M0 297L215 327Q229 187 311 172Q340 167 366 167Q409 167 440 183Q487 209 501 284Q502 290 502 296Q502 363 364 420Q213 482 121 558T25 757Q24 766 24 776Q24 885 74 945Q128 1009 220 1049Q294 1081 388 1081Q410 1081
432 1079Q553 1070 631 1003T747 717L547 699Q523 836 454 862Q407 879 371 879Q353 879 338 875Q291 862 266 807Q254 780 254 753Q254 727 266 702Q291 651 465 586T691 451T750 289Q751 278 751 268Q751 186 694 111Q630 27 488 -10Q427 -26 365 -26Q281 -26
196 3Q46 53 0 297Z" />
<glyph unicode="t" glyph-name="t" horiz-adv-x="708" d="M9 898L0 1089L162 1093L157 1521L370 1525V1102H553L558 898L364 902Q351 696 351 560Q351 337 385 301Q421 261 483 261Q514 261 551 271L553 65Q481 49 422 49Q350 49 296 73Q197 117 172 206Q151 276
151 391Q151 422 153 457V895L9 898Z" />
<glyph unicode="u" glyph-name="u" horiz-adv-x="928" d="M569 -36L561 166Q466 -24 316 -33Q307 -34 299 -34Q160 -34 70 116Q0 233 0 685Q0 847 9 1052L230 1064Q218 824 218 655Q218 328 262 270Q311 204 366 204Q386 204 406 212Q484 243 543 377Q550 476
550 654Q550 821 544 1056L778 1065Q768 554 768 -28L569 -36Z" />
<glyph unicode="v" glyph-name="v" horiz-adv-x="924" d="M228 997Q314 532 368 187Q461 555 533 1001H774Q610 487 489 -81L236 -99Q138 415 0 979L228 997Z" />
<glyph unicode="w" glyph-name="w" horiz-adv-x="1521" d="M193 -2Q110 548 0 1036L246 1063Q308 684 343 232L523 1069L808 1078L951 240Q1055 755 1103 1073L1371 1055Q1207 477 1092 -2H789L646 731L492 -2H193Z" />
<glyph unicode="x" glyph-name="x" horiz-adv-x="886" d="M234 1127L375 714L528 1131L736 1114L509 575L719 37L515 42L357 424L229 55L13 51L216 571L0 1096L234 1127Z" />
<glyph unicode="y" glyph-name="y" horiz-adv-x="959" d="M273 53Q151 488 0 988L241 997Q304 627 385 272L532 997L809 992Q587 399 363 -382L162 -315L273 53Z" />
<glyph unicode="z" glyph-name="z" horiz-adv-x="800" d="M628 1007L632 750L219 154Q418 173 641 187L650 -66Q521 -58 325 -58Q189 -58 22 -62L13 169L392 785Q211 776 0 745V1002L628 1007Z" />
<glyph unicode="{" glyph-name="braceleft" horiz-adv-x="905" d="M741 -226Q239 -226 219 219L226 477Q213 574 6 581L0 716Q219 748 219 858L213 1161Q212 1171 212 1182Q212 1303 287 1455Q365 1613 704 1613H729V1411H716Q458 1411 445 1168L439 852V838Q439
695 320 658Q453 612 453 502Q453 487 451 471L458 226Q471 -26 748 -26H755V-226H741Z" />
<glyph unicode="|" glyph-name="bar" horiz-adv-x="345" d="M195 -229L5 -219L0 1625L184 1615L195 -229Z" />
<glyph unicode="}" glyph-name="braceright" horiz-adv-x="905" d="M0 -26H7Q284 -26 297 226L304 471Q302 487 302 502Q302 612 435 658Q316 695 316 838V852L310 1168Q297 1411 39 1411H26V1613H51Q390 1613 468 1455Q543 1303 543 1182Q543 1171 542 1161L536
858Q536 748 755 716L749 581Q542 574 529 477L536 219Q516 -226 14 -226H0V-26Z" />
</font>
</defs>
</svg>
